<?xml version="1.0" encoding="UTF-8" standalone="no"?>
<!DOCTYPE svg PUBLIC "-//W3C//DTD SVG 1.1//EN"
 "http://www.w3.org/Graphics/SVG/1.1/DTD/svg11.dtd">
<!-- Generated by graphviz version 2.38.0 (20140413.2041)
 -->
<!-- Title: data_flow Pages: 1 -->
<svg width="2937pt" height="1117pt"
 viewBox="0.00 0.00 2937.42 1117.43" xmlns="http://www.w3.org/2000/svg" xmlns:xlink="http://www.w3.org/1999/xlink">
<g id="graph0" class="graph" transform="scale(1 1) rotate(0) translate(4 1113.43)">
<title>data_flow</title>
<polygon fill="white" stroke="none" points="-4,4 -4,-1113.43 2933.42,-1113.43 2933.42,4 -4,4"/>
<text text-anchor="middle" x="1464.71" y="-15.2" font-family="FreeSans" font-size="36.00">Sensorgnome Data Flow</text>
<g id="clust1" class="cluster"><title>clusterUser</title>
<polygon fill="none" stroke="black" points="2590.42,-56 2590.42,-231 2921.42,-231 2921.42,-56 2590.42,-56"/>
<text text-anchor="middle" x="2755.92" y="-198.2" font-family="FreeSans" font-size="36.00">User Computer</text>
</g>
<g id="clust2" class="cluster"><title>clusterSGProgs</title>
<polygon fill="none" stroke="black" points="166.419,-262 166.419,-865.43 2569.42,-865.43 2569.42,-262 166.419,-262"/>
<text text-anchor="middle" x="1367.92" y="-832.63" font-family="FreeSans" font-size="36.00">Sensorgnome</text>
<text text-anchor="middle" x="1367.92" y="-792.63" font-family="FreeSans" font-size="36.00">programs</text>
</g>
<g id="clust3" class="cluster"><title>clusterNodejs</title>
<polygon fill="none" stroke="black" points="599.419,-270 599.419,-769.43 1471.42,-769.43 1471.42,-270 599.419,-270"/>
<text text-anchor="middle" x="1035.42" y="-736.63" font-family="FreeSans" font-size="36.00">Node JS</text>
</g>
<!-- userBrowser -->
<g id="node1" class="node"><title>userBrowser</title>
<polygon fill="none" stroke="black" points="2672.42,-175 2598.42,-175 2598.42,-137 2672.42,-137 2672.42,-175"/>
<text text-anchor="middle" x="2635.42" y="-159.8" font-family="FreeSans" font-size="14.00">Web</text>
<text text-anchor="middle" x="2635.42" y="-144.8" font-family="FreeSans" font-size="14.00">Browser</text>
</g>
<!-- ftpClient -->
<g id="node2" class="node"><title>ftpClient</title>
<polygon fill="none" stroke="black" points="2775.92,-174 2690.92,-174 2690.92,-138 2775.92,-138 2775.92,-174"/>
<text text-anchor="middle" x="2733.42" y="-152.3" font-family="FreeSans" font-size="14.00">FTP client</text>
</g>
<!-- localFiles -->
<g id="node3" class="node"><title>localFiles</title>
<polygon fill="none" stroke="black" points="2844.42,-100 2740.42,-100 2740.42,-64 2844.42,-64 2844.42,-100"/>
<text text-anchor="middle" x="2792.42" y="-78.3" font-family="FreeSans" font-size="14.00">Raw SG files</text>
</g>
<!-- ftpClient&#45;&gt;localFiles -->
<g id="edge34" class="edge"><title>ftpClient&#45;&gt;localFiles</title>
<path fill="none" stroke="black" d="M2747.4,-137.937C2754.64,-129.1 2763.63,-118.135 2771.66,-108.331"/>
<polygon fill="black" stroke="black" points="2774.5,-110.394 2778.13,-100.441 2769.08,-105.957 2774.5,-110.394"/>
</g>
<!-- networkDrive -->
<g id="node4" class="node"><title>networkDrive</title>
<polygon fill="none" stroke="black" points="2912.92,-174 2793.92,-174 2793.92,-138 2912.92,-138 2912.92,-174"/>
<text text-anchor="middle" x="2853.42" y="-152.3" font-family="FreeSans" font-size="14.00">Network Drive</text>
</g>
<!-- networkDrive&#45;&gt;localFiles -->
<g id="edge36" class="edge"><title>networkDrive&#45;&gt;localFiles</title>
<path fill="none" stroke="black" d="M2838.96,-137.937C2831.48,-129.1 2822.19,-118.135 2813.88,-108.331"/>
<polygon fill="black" stroke="black" points="2816.33,-105.808 2807.19,-100.441 2810.99,-110.333 2816.33,-105.808"/>
</g>
<!-- Hub -->
<g id="node5" class="node"><title>Hub</title>
<path fill="none" stroke="black" d="M1867.42,-968.43C1867.42,-968.43 1921.42,-968.43 1921.42,-968.43 1927.42,-968.43 1933.42,-974.43 1933.42,-980.43 1933.42,-980.43 1933.42,-992.43 1933.42,-992.43 1933.42,-998.43 1927.42,-1004.43 1921.42,-1004.43 1921.42,-1004.43 1867.42,-1004.43 1867.42,-1004.43 1861.42,-1004.43 1855.42,-998.43 1855.42,-992.43 1855.42,-992.43 1855.42,-980.43 1855.42,-980.43 1855.42,-974.43 1861.42,-968.43 1867.42,-968.43"/>
<text text-anchor="middle" x="1894.42" y="-982.73" font-family="FreeSans" font-size="14.00">USB Hub</text>
</g>
<!-- FuncubeDongle -->
<g id="node6" class="node"><title>FuncubeDongle</title>
<path fill="none" stroke="black" d="M2591.42,-676.43C2591.42,-676.43 2695.42,-676.43 2695.42,-676.43 2701.42,-676.43 2707.42,-682.43 2707.42,-688.43 2707.42,-688.43 2707.42,-700.43 2707.42,-700.43 2707.42,-706.43 2701.42,-712.43 2695.42,-712.43 2695.42,-712.43 2591.42,-712.43 2591.42,-712.43 2585.42,-712.43 2579.42,-706.43 2579.42,-700.43 2579.42,-700.43 2579.42,-688.43 2579.42,-688.43 2579.42,-682.43 2585.42,-676.43 2591.42,-676.43"/>
<text text-anchor="middle" x="2643.42" y="-690.73" font-family="FreeSans" font-size="14.00">Funcube Dongle</text>
</g>
<!-- Hub&#45;&gt;FuncubeDongle -->
<g id="edge12" class="edge"><title>Hub&#45;&gt;FuncubeDongle</title>
<path fill="none" stroke="black" d="M1933.75,-984.404C2065.5,-980.671 2485.92,-966.277 2536.42,-933.43 2609.81,-885.696 2633.37,-774.401 2640.51,-722.712"/>
<polygon fill="black" stroke="black" points="2644.01,-722.993 2641.8,-712.631 2637.06,-722.107 2644.01,-722.993"/>
<text text-anchor="middle" x="2672.92" y="-907.23" font-family="FreeSans" font-size="14.00">Freq/Filter commands</text>
<text text-anchor="middle" x="2672.92" y="-892.23" font-family="FreeSans" font-size="14.00">using interrupt endpoint</text>
</g>
<!-- VAH -->
<g id="node19" class="node"><title>VAH</title>
<ellipse fill="none" stroke="black" cx="1862.42" cy="-694.43" rx="162.769" ry="48.1667"/>
<text text-anchor="middle" x="1862.42" y="-713.23" font-family="FreeSans" font-size="14.00">vamp&#45;alsa&#45;host</text>
<text text-anchor="middle" x="1862.42" y="-698.23" font-family="FreeSans" font-size="14.00">c++</text>
<text text-anchor="middle" x="1862.42" y="-683.23" font-family="FreeSans" font-size="14.00">read data from funcubedongles</text>
<text text-anchor="middle" x="1862.42" y="-668.23" font-family="FreeSans" font-size="14.00">detects pulses</text>
</g>
<!-- Hub&#45;&gt;VAH -->
<g id="edge8" class="edge"><title>Hub&#45;&gt;VAH</title>
<path fill="none" stroke="black" d="M1867.72,-968.211C1856.44,-959.329 1844.52,-947.416 1838.42,-933.43 1813.05,-875.259 1826.52,-801.731 1841.5,-751.908"/>
<polygon fill="black" stroke="black" points="1844.87,-752.86 1844.51,-742.271 1838.19,-750.776 1844.87,-752.86"/>
<text text-anchor="middle" x="1883.92" y="-899.73" font-family="FreeSans" font-size="14.00">funcube data</text>
</g>
<!-- gpsd -->
<g id="node21" class="node"><title>gpsd</title>
<ellipse fill="none" stroke="black" cx="272.419" cy="-694.43" rx="92.7622" ry="37.4533"/>
<text text-anchor="middle" x="272.419" y="-705.73" font-family="FreeSans" font-size="14.00">gpsd</text>
<text text-anchor="middle" x="272.419" y="-690.73" font-family="FreeSans" font-size="14.00">read time,lat/lon</text>
<text text-anchor="middle" x="272.419" y="-675.73" font-family="FreeSans" font-size="14.00">from GPS</text>
</g>
<!-- Hub&#45;&gt;gpsd -->
<g id="edge7" class="edge"><title>Hub&#45;&gt;gpsd</title>
<path fill="none" stroke="black" d="M1855.04,-984.107C1725.99,-979.587 1304.16,-963.356 956.419,-933.43 696.952,-911.101 593.201,-1006.7 374.419,-865.43 329.943,-836.712 302.089,-781.131 286.94,-741.336"/>
<polygon fill="black" stroke="black" points="290.184,-740.017 283.45,-731.838 283.614,-742.432 290.184,-740.017"/>
<text text-anchor="middle" x="1013.92" y="-899.73" font-family="FreeSans" font-size="14.00">NMEA sentences</text>
</g>
<!-- FuncubeDongle&#45;&gt;Hub -->
<g id="edge11" class="edge"><title>FuncubeDongle&#45;&gt;Hub</title>
<path fill="none" stroke="black" d="M2642.12,-712.519C2638.43,-747.871 2624.52,-828.79 2573.42,-865.43 2562.11,-873.54 2462.22,-871.602 2448.42,-873.43 2260.05,-898.382 2039.66,-949.671 1943.48,-973.174"/>
<polygon fill="black" stroke="black" points="1942.62,-969.781 1933.74,-975.563 1944.29,-976.58 1942.62,-969.781"/>
<text text-anchor="middle" x="2496.42" y="-922.23" font-family="FreeSans" font-size="14.00">I/Q as stereo</text>
<text text-anchor="middle" x="2496.42" y="-907.23" font-family="FreeSans" font-size="14.00">S16_LE PCM</text>
<text text-anchor="middle" x="2496.42" y="-892.23" font-family="FreeSans" font-size="14.00">audio data</text>
<text text-anchor="middle" x="2496.42" y="-877.23" font-family="FreeSans" font-size="14.00">48kHz</text>
</g>
<!-- USB_GPS -->
<g id="node7" class="node"><title>USB_GPS</title>
<path fill="none" stroke="black" d="M1866.42,-1072.93C1866.42,-1072.93 1922.42,-1072.93 1922.42,-1072.93 1928.42,-1072.93 1934.42,-1078.93 1934.42,-1084.93 1934.42,-1084.93 1934.42,-1096.93 1934.42,-1096.93 1934.42,-1102.93 1928.42,-1108.93 1922.42,-1108.93 1922.42,-1108.93 1866.42,-1108.93 1866.42,-1108.93 1860.42,-1108.93 1854.42,-1102.93 1854.42,-1096.93 1854.42,-1096.93 1854.42,-1084.93 1854.42,-1084.93 1854.42,-1078.93 1860.42,-1072.93 1866.42,-1072.93"/>
<text text-anchor="middle" x="1894.42" y="-1087.23" font-family="FreeSans" font-size="14.00">USB GPS</text>
</g>
<!-- USB_GPS&#45;&gt;Hub -->
<g id="edge6" class="edge"><title>USB_GPS&#45;&gt;Hub</title>
<path fill="none" stroke="black" d="M1894.42,-1072.54C1894.42,-1056.69 1894.42,-1033.02 1894.42,-1014.66"/>
<polygon fill="black" stroke="black" points="1897.92,-1014.56 1894.42,-1004.56 1890.92,-1014.56 1897.92,-1014.56"/>
<text text-anchor="middle" x="1951.92" y="-1043.23" font-family="FreeSans" font-size="14.00">NMEA sentences</text>
</g>
<!-- Cape_GPS -->
<g id="node8" class="node"><title>Cape_GPS</title>
<path fill="none" stroke="black" d="M80.9188,-968.43C80.9188,-968.43 141.919,-968.43 141.919,-968.43 147.919,-968.43 153.919,-974.43 153.919,-980.43 153.919,-980.43 153.919,-992.43 153.919,-992.43 153.919,-998.43 147.919,-1004.43 141.919,-1004.43 141.919,-1004.43 80.9188,-1004.43 80.9188,-1004.43 74.9188,-1004.43 68.9188,-998.43 68.9188,-992.43 68.9188,-992.43 68.9188,-980.43 68.9188,-980.43 68.9188,-974.43 74.9188,-968.43 80.9188,-968.43"/>
<text text-anchor="middle" x="111.419" y="-982.73" font-family="FreeSans" font-size="14.00">Cape GPS</text>
</g>
<!-- chrony -->
<g id="node20" class="node"><title>chrony</title>
<ellipse fill="none" stroke="black" cx="382.419" cy="-542.87" rx="207.779" ry="26.7407"/>
<text text-anchor="middle" x="382.419" y="-546.67" font-family="FreeSans" font-size="14.00">chrony</text>
<text text-anchor="middle" x="382.419" y="-531.67" font-family="FreeSans" font-size="14.00">keep system clock in sync with GPS/PPS</text>
</g>
<!-- Cape_GPS&#45;&gt;chrony -->
<g id="edge5" class="edge"><title>Cape_GPS&#45;&gt;chrony</title>
<path fill="none" stroke="black" d="M96.057,-968.307C77.4799,-946.333 47.2336,-906.167 35.4188,-865.43 6.98313,-767.386 -26.8469,-716.636 35.4188,-635.74 60.4392,-603.233 151.492,-579.864 234.046,-564.832"/>
<polygon fill="black" stroke="black" points="234.838,-568.245 244.066,-563.04 233.606,-561.355 234.838,-568.245"/>
<text text-anchor="middle" x="102.919" y="-698.23" font-family="FreeSans" font-size="14.00">PPS pulses</text>
<text text-anchor="middle" x="102.919" y="-683.23" font-family="FreeSans" font-size="14.00">via kernel interrupt</text>
</g>
<!-- Cape_GPS&#45;&gt;gpsd -->
<g id="edge4" class="edge"><title>Cape_GPS&#45;&gt;gpsd</title>
<path fill="none" stroke="black" d="M121.008,-968.158C145.577,-923.903 211.393,-805.352 247.636,-740.071"/>
<polygon fill="black" stroke="black" points="250.752,-741.668 252.546,-731.226 244.632,-738.27 250.752,-741.668"/>
<text text-anchor="middle" x="206.419" y="-899.73" font-family="FreeSans" font-size="14.00">via ttyO4</text>
</g>
<!-- deployment_txt -->
<g id="node9" class="node"><title>deployment_txt</title>
<path fill="none" stroke="black" d="M1026.42,-951.93C1026.42,-951.93 1124.42,-951.93 1124.42,-951.93 1130.42,-951.93 1136.42,-957.93 1136.42,-963.93 1136.42,-963.93 1136.42,-1008.93 1136.42,-1008.93 1136.42,-1014.93 1130.42,-1020.93 1124.42,-1020.93 1124.42,-1020.93 1026.42,-1020.93 1026.42,-1020.93 1020.42,-1020.93 1014.42,-1014.93 1014.42,-1008.93 1014.42,-1008.93 1014.42,-963.93 1014.42,-963.93 1014.42,-957.93 1020.42,-951.93 1026.42,-951.93"/>
<text text-anchor="middle" x="1075.42" y="-1005.73" font-family="FreeSans" font-size="14.00">deployment.txt</text>
<polyline fill="none" stroke="black" points="1014.42,-997.93 1136.42,-997.93 "/>
<text text-anchor="middle" x="1075.42" y="-982.73" font-family="FreeSans" font-size="14.00">boot drive</text>
<polyline fill="none" stroke="black" points="1014.42,-974.93 1136.42,-974.93 "/>
<text text-anchor="middle" x="1075.42" y="-959.73" font-family="FreeSans" font-size="14.00">JSON format</text>
</g>
<!-- master_js -->
<g id="node11" class="node"><title>master_js</title>
<polygon fill="none" stroke="black" points="1133.42,-713.43 1017.42,-713.43 1017.42,-675.43 1133.42,-675.43 1133.42,-713.43"/>
<text text-anchor="middle" x="1075.42" y="-698.23" font-family="FreeSans" font-size="14.00">master.js</text>
<text text-anchor="middle" x="1075.42" y="-683.23" font-family="FreeSans" font-size="14.00">overall control</text>
</g>
<!-- deployment_txt&#45;&gt;master_js -->
<g id="edge32" class="edge"><title>deployment_txt&#45;&gt;master_js</title>
<path fill="none" stroke="black" d="M1075.42,-951.88C1075.42,-894.272 1075.42,-777.564 1075.42,-723.764"/>
<polygon fill="black" stroke="black" points="1078.92,-723.58 1075.42,-713.58 1071.92,-723.58 1078.92,-723.58"/>
<text text-anchor="middle" x="1129.42" y="-899.73" font-family="FreeSans" font-size="14.00">acquisition plan</text>
</g>
<!-- SG_tag_database -->
<g id="node10" class="node"><title>SG_tag_database</title>
<path fill="none" stroke="black" d="M2589.92,-519.87C2589.92,-519.87 2774.92,-519.87 2774.92,-519.87 2780.92,-519.87 2786.92,-525.87 2786.92,-531.87 2786.92,-531.87 2786.92,-553.87 2786.92,-553.87 2786.92,-559.87 2780.92,-565.87 2774.92,-565.87 2774.92,-565.87 2589.92,-565.87 2589.92,-565.87 2583.92,-565.87 2577.92,-559.87 2577.92,-553.87 2577.92,-553.87 2577.92,-531.87 2577.92,-531.87 2577.92,-525.87 2583.92,-519.87 2589.92,-519.87"/>
<text text-anchor="middle" x="2682.42" y="-550.67" font-family="FreeSans" font-size="14.00">SG_tag_database.sqlite/.csv</text>
<polyline fill="none" stroke="black" points="2577.92,-542.87 2786.92,-542.87 "/>
<text text-anchor="middle" x="2682.42" y="-527.67" font-family="FreeSans" font-size="14.00">onboard database</text>
</g>
<!-- find_tags -->
<g id="node24" class="node"><title>find_tags</title>
<polygon fill="none" stroke="black" points="321.419,-404.5 321.419,-442.5 591.419,-442.5 591.419,-404.5 321.419,-404.5"/>
<text text-anchor="middle" x="456.419" y="-427.3" font-family="FreeSans" font-size="14.00">find_tags</text>
<text text-anchor="middle" x="456.419" y="-412.3" font-family="FreeSans" font-size="14.00">detect tags from sequences of pulses</text>
</g>
<!-- SG_tag_database&#45;&gt;find_tags -->
<g id="edge29" class="edge"><title>SG_tag_database&#45;&gt;find_tags</title>
<path fill="none" stroke="black" d="M2596.13,-519.816C2588.49,-518.34 2580.84,-517.033 2573.42,-516 2089.62,-448.632 1963.63,-483.662 1475.42,-468 1279.92,-461.728 790.02,-469.711 595.419,-450 581.437,-448.584 566.752,-446.525 552.38,-444.181"/>
<polygon fill="black" stroke="black" points="552.935,-440.725 542.493,-442.518 551.773,-447.628 552.935,-440.725"/>
<text text-anchor="middle" x="2435.42" y="-479.3" font-family="FreeSans" font-size="14.00">tag db</text>
</g>
<!-- webserver_js -->
<g id="node12" class="node"><title>webserver_js</title>
<polygon fill="none" stroke="black" points="1048.92,-331 895.919,-331 895.919,-278 1048.92,-278 1048.92,-331"/>
<text text-anchor="middle" x="972.419" y="-315.8" font-family="FreeSans" font-size="14.00">webserver.js</text>
<text text-anchor="middle" x="972.419" y="-300.8" font-family="FreeSans" font-size="14.00">serve web interface</text>
<text text-anchor="middle" x="972.419" y="-285.8" font-family="FreeSans" font-size="14.00">to connected user</text>
</g>
<!-- master_js&#45;&gt;webserver_js -->
<g id="edge13" class="edge"><title>master_js&#45;&gt;webserver_js</title>
<path fill="none" stroke="black" d="M1082.61,-675.336C1091.72,-651.54 1107.12,-608.231 1114.42,-569.74 1118.99,-545.643 1130.35,-368.458 1115.42,-349 1101.59,-330.978 1080.49,-320.194 1058.72,-313.807"/>
<polygon fill="black" stroke="black" points="1059.59,-310.417 1049.03,-311.251 1057.81,-317.186 1059.59,-310.417"/>
</g>
<!-- VAH_js -->
<g id="node13" class="node"><title>VAH_js</title>
<polygon fill="none" stroke="black" points="1463.42,-569.37 1281.42,-569.37 1281.42,-516.37 1463.42,-516.37 1463.42,-569.37"/>
<text text-anchor="middle" x="1372.42" y="-554.17" font-family="FreeSans" font-size="14.00">VAH.js</text>
<text text-anchor="middle" x="1372.42" y="-539.17" font-family="FreeSans" font-size="14.00">control vamp&#45;alsa&#45;host</text>
<text text-anchor="middle" x="1372.42" y="-524.17" font-family="FreeSans" font-size="14.00">receive pulse detections</text>
</g>
<!-- master_js&#45;&gt;VAH_js -->
<g id="edge15" class="edge"><title>master_js&#45;&gt;VAH_js</title>
<path fill="none" stroke="black" d="M1091.34,-675.376C1103.08,-662.919 1119.99,-646.692 1137.42,-635.74 1179.83,-609.086 1231.25,-587.913 1275.16,-572.642"/>
<polygon fill="black" stroke="black" points="1276.37,-575.927 1284.7,-569.376 1274.1,-569.304 1276.37,-575.927"/>
</g>
<!-- gps_js -->
<g id="node14" class="node"><title>gps_js</title>
<polygon fill="none" stroke="black" points="927.419,-561.87 753.419,-561.87 753.419,-523.87 927.419,-523.87 927.419,-561.87"/>
<text text-anchor="middle" x="840.419" y="-546.67" font-family="FreeSans" font-size="14.00">gps.js</text>
<text text-anchor="middle" x="840.419" y="-531.67" font-family="FreeSans" font-size="14.00">acquire fixes from gpsd</text>
</g>
<!-- master_js&#45;&gt;gps_js -->
<g id="edge14" class="edge"><title>master_js&#45;&gt;gps_js</title>
<path fill="none" stroke="black" d="M1058.32,-675.196C1046.43,-663.124 1029.83,-647.424 1013.42,-635.74 974.639,-608.126 926.54,-583.241 890.909,-566.357"/>
<polygon fill="black" stroke="black" points="892.212,-563.103 881.672,-562.027 889.24,-569.441 892.212,-563.103"/>
</g>
<!-- hub_js -->
<g id="node15" class="node"><title>hub_js</title>
<polygon fill="none" stroke="black" points="1105.42,-561.87 945.419,-561.87 945.419,-523.87 1105.42,-523.87 1105.42,-561.87"/>
<text text-anchor="middle" x="1025.42" y="-546.67" font-family="FreeSans" font-size="14.00">hub.js</text>
<text text-anchor="middle" x="1025.42" y="-531.67" font-family="FreeSans" font-size="14.00">manage USB devices</text>
</g>
<!-- master_js&#45;&gt;hub_js -->
<g id="edge16" class="edge"><title>master_js&#45;&gt;hub_js</title>
<path fill="none" stroke="black" d="M1069.39,-675.39C1060.75,-649.563 1044.8,-601.832 1034.66,-571.527"/>
<polygon fill="black" stroke="black" points="1037.96,-570.349 1031.47,-561.974 1031.32,-572.568 1037.96,-570.349"/>
</g>
<!-- tagfinder_js -->
<g id="node17" class="node"><title>tagfinder_js</title>
<polygon fill="none" stroke="black" points="734.919,-561.87 607.919,-561.87 607.919,-523.87 734.919,-523.87 734.919,-561.87"/>
<text text-anchor="middle" x="671.419" y="-546.67" font-family="FreeSans" font-size="14.00">tagfinder.js</text>
<text text-anchor="middle" x="671.419" y="-531.67" font-family="FreeSans" font-size="14.00">dlive tag finding</text>
</g>
<!-- master_js&#45;&gt;tagfinder_js -->
<g id="edge18" class="edge"><title>master_js&#45;&gt;tagfinder_js</title>
<path fill="none" stroke="black" d="M1060.72,-675.351C1049.19,-662.378 1032.03,-645.524 1013.42,-635.74 980.777,-618.579 968.289,-626.303 932.419,-617.74 848.54,-597.717 826.923,-594.835 744.419,-569.74 739.76,-568.323 734.958,-566.789 730.146,-565.2"/>
<polygon fill="black" stroke="black" points="730.895,-561.758 720.301,-561.879 728.658,-568.391 730.895,-561.758"/>
</g>
<!-- uploader_js -->
<g id="node18" class="node"><title>uploader_js</title>
<polygon fill="none" stroke="black" points="1262.92,-569.37 1143.92,-569.37 1143.92,-516.37 1262.92,-516.37 1262.92,-569.37"/>
<text text-anchor="middle" x="1203.42" y="-554.17" font-family="FreeSans" font-size="14.00">uploader.js</text>
<text text-anchor="middle" x="1203.42" y="-539.17" font-family="FreeSans" font-size="14.00">push detetions</text>
<text text-anchor="middle" x="1203.42" y="-524.17" font-family="FreeSans" font-size="14.00">to server</text>
</g>
<!-- master_js&#45;&gt;uploader_js -->
<g id="edge17" class="edge"><title>master_js&#45;&gt;uploader_js</title>
<path fill="none" stroke="black" d="M1090.86,-675.39C1111.61,-651.141 1148.89,-607.583 1174.83,-577.269"/>
<polygon fill="black" stroke="black" points="1177.66,-579.355 1181.5,-569.482 1172.34,-574.804 1177.66,-579.355"/>
</g>
<!-- webserver_js&#45;&gt;userBrowser -->
<g id="edge3" class="edge"><title>webserver_js&#45;&gt;userBrowser</title>
<path fill="none" stroke="black" d="M1059.18,-295.857C1361.06,-269.263 2359.52,-181.305 2588.39,-161.143"/>
<polygon fill="black" stroke="black" points="1058.67,-292.388 1049.02,-296.752 1059.29,-299.361 1058.67,-292.388"/>
<polygon fill="black" stroke="black" points="2588.74,-164.626 2598.39,-160.262 2588.12,-157.653 2588.74,-164.626"/>
<text text-anchor="middle" x="1752.92" y="-242.8" font-family="FreeSans" font-size="14.00">Web Interface</text>
</g>
<!-- matron_js -->
<g id="node16" class="node"><title>matron_js</title>
<polygon fill="none" stroke="black" points="946.919,-450 821.919,-450 821.919,-397 946.919,-397 946.919,-450"/>
<text text-anchor="middle" x="884.419" y="-434.8" font-family="FreeSans" font-size="14.00">matron.js</text>
<text text-anchor="middle" x="884.419" y="-419.8" font-family="FreeSans" font-size="14.00">route messages</text>
<text text-anchor="middle" x="884.419" y="-404.8" font-family="FreeSans" font-size="14.00">within node</text>
</g>
<!-- gps_js&#45;&gt;matron_js -->
<g id="edge23" class="edge"><title>gps_js&#45;&gt;matron_js</title>
<path fill="none" stroke="black" d="M847.197,-523.788C853.565,-506.802 863.271,-480.913 871.174,-459.83"/>
<polygon fill="black" stroke="black" points="874.54,-460.821 874.773,-450.229 867.986,-458.364 874.54,-460.821"/>
<text text-anchor="middle" x="900.919" y="-479.3" font-family="FreeSans" font-size="14.00">GPS fixes</text>
</g>
<!-- hub_js&#45;&gt;matron_js -->
<g id="edge20" class="edge"><title>hub_js&#45;&gt;matron_js</title>
<path fill="none" stroke="black" d="M993.633,-523.747C982.231,-516.494 969.671,-507.583 959.419,-498 947.145,-486.527 948.043,-480.13 936.419,-468 932.846,-464.272 928.97,-460.543 925,-456.925"/>
<polygon fill="black" stroke="black" points="927.118,-454.126 917.305,-450.13 922.485,-459.373 927.118,-454.126"/>
<text text-anchor="middle" x="1039.42" y="-479.3" font-family="FreeSans" font-size="14.00">devAdded/devRemoved</text>
</g>
<!-- matron_js&#45;&gt;webserver_js -->
<g id="edge22" class="edge"><title>matron_js&#45;&gt;webserver_js</title>
<path fill="none" stroke="black" d="M821.709,-398.447C820.268,-397.954 818.836,-397.471 817.419,-397 789.786,-387.812 771.955,-402.248 754.419,-379 746.39,-368.355 745.963,-359.309 754.419,-349 771.175,-328.57 832.372,-317.55 885.676,-311.719"/>
<polygon fill="black" stroke="black" points="886.288,-315.174 895.87,-310.655 885.561,-308.212 886.288,-315.174"/>
<text text-anchor="middle" x="808.419" y="-360.3" font-family="FreeSans" font-size="14.00">detected pulses</text>
</g>
<!-- matron_js&#45;&gt;webserver_js -->
<g id="edge24" class="edge"><title>matron_js&#45;&gt;webserver_js</title>
<path fill="none" stroke="black" d="M878.499,-396.824C876.481,-381.787 876.601,-363.053 885.419,-349 888.03,-344.838 891.172,-341.061 894.689,-337.634"/>
<polygon fill="black" stroke="black" points="897.041,-340.228 902.387,-331.081 892.504,-334.898 897.041,-340.228"/>
<text text-anchor="middle" x="917.919" y="-360.3" font-family="FreeSans" font-size="14.00">GPS fixes</text>
</g>
<!-- matron_js&#45;&gt;webserver_js -->
<g id="edge26" class="edge"><title>matron_js&#45;&gt;webserver_js</title>
<path fill="none" stroke="black" d="M932.267,-396.925C939.061,-391.703 945.423,-385.717 950.419,-379 958.572,-368.036 963.724,-354.058 966.97,-341.241"/>
<polygon fill="black" stroke="black" points="970.429,-341.813 969.186,-331.291 963.596,-340.291 970.429,-341.813"/>
<text text-anchor="middle" x="1038.42" y="-367.8" font-family="FreeSans" font-size="14.00">tag finder</text>
<text text-anchor="middle" x="1038.42" y="-352.8" font-family="FreeSans" font-size="14.00">Onboard tag DB only</text>
</g>
<!-- tagfinder_js&#45;&gt;matron_js -->
<g id="edge25" class="edge"><title>tagfinder_js&#45;&gt;matron_js</title>
<path fill="none" stroke="black" d="M675.256,-523.599C679.861,-506.442 689.335,-481.457 707.419,-468 744.522,-440.389 766.528,-459.867 811.759,-451.105"/>
<polygon fill="black" stroke="black" points="812.828,-454.45 821.777,-448.779 811.245,-447.631 812.828,-454.45"/>
<text text-anchor="middle" x="780.419" y="-486.8" font-family="FreeSans" font-size="14.00">tag finder</text>
<text text-anchor="middle" x="780.419" y="-471.8" font-family="FreeSans" font-size="14.00">Onboard tag DB only</text>
</g>
<!-- tagfinder_js&#45;&gt;find_tags -->
<g id="edge28" class="edge"><title>tagfinder_js&#45;&gt;find_tags</title>
<path fill="none" stroke="black" d="M623.765,-523.848C601.871,-515.073 578.727,-504.946 569.419,-498 555.509,-487.619 558.049,-478.745 544.419,-468 534.386,-460.091 522.684,-453.084 511.15,-447.129"/>
<polygon fill="black" stroke="black" points="512.485,-443.885 501.971,-442.582 509.377,-450.157 512.485,-443.885"/>
<text text-anchor="middle" x="625.419" y="-479.3" font-family="FreeSans" font-size="14.00">pulse detections</text>
</g>
<!-- auto_ssh -->
<g id="node25" class="node"><title>auto_ssh</title>
<polygon fill="none" stroke="black" points="1479.92,-400.5 1479.92,-446.5 1776.92,-446.5 1776.92,-400.5 1479.92,-400.5"/>
<text text-anchor="middle" x="1628.42" y="-431.3" font-family="FreeSans" font-size="14.00">ssh/autossh</text>
<polyline fill="none" stroke="black" points="1479.92,-423.5 1776.92,-423.5 "/>
<text text-anchor="middle" x="1628.42" y="-408.3" font-family="FreeSans" font-size="14.00">maintain ssh connection to sg.org server</text>
</g>
<!-- uploader_js&#45;&gt;auto_ssh -->
<g id="edge31" class="edge"><title>uploader_js&#45;&gt;auto_ssh</title>
<path fill="none" stroke="black" d="M1263.12,-519.039C1266.26,-517.981 1269.37,-516.961 1272.42,-516 1354.97,-489.999 1449.97,-465.867 1521.06,-448.921"/>
<polygon fill="black" stroke="black" points="1522,-452.294 1530.92,-446.578 1520.39,-445.483 1522,-452.294"/>
<text text-anchor="middle" x="1516.92" y="-479.3" font-family="FreeSans" font-size="14.00">push live info to server</text>
</g>
<!-- VAH&#45;&gt;Hub -->
<g id="edge9" class="edge"><title>VAH&#45;&gt;Hub</title>
<path fill="none" stroke="black" d="M1885.28,-742.073C1901.19,-777.228 1920.99,-827.137 1929.42,-873.43 1934.19,-899.666 1937.2,-907.925 1929.42,-933.43 1926.57,-942.755 1921.43,-951.922 1915.95,-959.9"/>
<polygon fill="black" stroke="black" points="1913.07,-957.911 1909.96,-968.041 1918.71,-962.059 1913.07,-957.911"/>
<text text-anchor="middle" x="2005.92" y="-899.73" font-family="FreeSans" font-size="14.00">Start/Stop streaming</text>
</g>
<!-- VAH&#45;&gt;VAH_js -->
<g id="edge1" class="edge"><title>VAH&#45;&gt;VAH_js</title>
<path fill="none" stroke="black" d="M1754.83,-652.735C1733.73,-646.072 1711.58,-639.973 1690.42,-635.74 1635.37,-624.726 1488.81,-642.486 1438.42,-617.74 1420.31,-608.85 1404.95,-592.601 1393.61,-577.603"/>
<polygon fill="black" stroke="black" points="1753.85,-656.097 1764.44,-655.831 1755.99,-649.434 1753.85,-656.097"/>
<polygon fill="black" stroke="black" points="1396.42,-575.517 1387.73,-569.453 1390.74,-579.611 1396.42,-575.517"/>
<text text-anchor="middle" x="1492.42" y="-606.54" font-family="FreeSans" font-size="14.00">start/stop</text>
<text text-anchor="middle" x="1492.42" y="-591.54" font-family="FreeSans" font-size="14.00">detected pulses</text>
</g>
<!-- VAH&#45;&gt;matron_js -->
<g id="edge21" class="edge"><title>VAH&#45;&gt;matron_js</title>
<path fill="none" stroke="black" d="M1787.97,-651.639C1711.28,-610.515 1587.1,-549.203 1472.42,-516 1322.02,-472.457 1278.86,-486.771 1123.42,-468 1049.97,-459.131 1027.49,-467.319 956.976,-451.469"/>
<polygon fill="black" stroke="black" points="957.712,-448.047 947.178,-449.185 956.122,-454.864 957.712,-448.047"/>
<text text-anchor="middle" x="1668.42" y="-539.17" font-family="FreeSans" font-size="14.00">detected pulses</text>
</g>
<!-- gpsd&#45;&gt;gps_js -->
<g id="edge2" class="edge"><title>gpsd&#45;&gt;gps_js</title>
<path fill="none" stroke="black" d="M320.162,-662.227C336.781,-652.52 355.908,-642.58 374.419,-635.74 413.5,-621.298 425.725,-626.679 466.419,-617.74 521.378,-605.668 534.037,-597.692 589.419,-587.74 657.243,-575.553 675.729,-582.653 743.419,-569.74 751.54,-568.191 759.982,-566.327 768.348,-564.32"/>
<polygon fill="black" stroke="black" points="769.241,-567.704 778.109,-561.906 767.561,-560.909 769.241,-567.704"/>
<text text-anchor="middle" x="626.919" y="-599.04" font-family="FreeSans" font-size="14.00">GPS fixes</text>
</g>
<!-- gpsd&#45;&gt;chrony -->
<g id="edge30" class="edge"><title>gpsd&#45;&gt;chrony</title>
<path fill="none" stroke="black" d="M298.209,-658.365C316.045,-634.114 339.656,-602.012 357.337,-577.973"/>
<polygon fill="black" stroke="black" points="360.219,-579.961 363.324,-569.832 354.58,-575.814 360.219,-579.961"/>
<text text-anchor="middle" x="406.419" y="-599.04" font-family="FreeSans" font-size="14.00">NMEA date/time</text>
</g>
<!-- fcd -->
<g id="node22" class="node"><title>fcd</title>
<ellipse fill="none" stroke="black" cx="1580.42" cy="-694.43" rx="101.233" ry="58.8803"/>
<text text-anchor="middle" x="1580.42" y="-720.73" font-family="FreeSans" font-size="14.00">fcd</text>
<text text-anchor="middle" x="1580.42" y="-705.73" font-family="FreeSans" font-size="14.00">set funcubedongle</text>
<text text-anchor="middle" x="1580.42" y="-690.73" font-family="FreeSans" font-size="14.00">frequency</text>
<text text-anchor="middle" x="1580.42" y="-675.73" font-family="FreeSans" font-size="14.00">and</text>
<text text-anchor="middle" x="1580.42" y="-660.73" font-family="FreeSans" font-size="14.00">filtering</text>
</g>
<!-- fcd&#45;&gt;Hub -->
<g id="edge10" class="edge"><title>fcd&#45;&gt;Hub</title>
<path fill="none" stroke="black" d="M1584.37,-753.115C1591.26,-807.515 1610.08,-887.381 1661.42,-933.43 1688.11,-957.368 1785.12,-972.699 1845.23,-980.124"/>
<polygon fill="black" stroke="black" points="1844.93,-983.613 1855.27,-981.334 1845.76,-976.663 1844.93,-983.613"/>
<text text-anchor="middle" x="1741.42" y="-899.73" font-family="FreeSans" font-size="14.00">funcubedongle settings</text>
</g>
<!-- udev -->
<g id="node23" class="node"><title>udev</title>
<polygon fill="none" stroke="black" points="383.419,-663.93 383.419,-724.93 591.419,-724.93 591.419,-663.93 383.419,-663.93"/>
<text text-anchor="middle" x="487.419" y="-709.73" font-family="FreeSans" font-size="14.00">udev</text>
<text text-anchor="middle" x="487.419" y="-694.73" font-family="FreeSans" font-size="14.00">react to device detections</text>
<polyline fill="none" stroke="black" points="383.419,-686.93 591.419,-686.93 "/>
<text text-anchor="middle" x="487.419" y="-671.73" font-family="FreeSans" font-size="14.00">map USB hub port numbers</text>
</g>
<!-- udev&#45;&gt;hub_js -->
<g id="edge19" class="edge"><title>udev&#45;&gt;hub_js</title>
<path fill="none" stroke="black" d="M535.461,-663.787C553.688,-653.62 574.984,-642.989 595.419,-635.74 740.904,-584.13 786.367,-605.989 936.419,-569.74 942.934,-568.166 949.686,-566.419 956.424,-564.598"/>
<polygon fill="black" stroke="black" points="957.548,-567.919 966.258,-561.887 955.688,-561.17 957.548,-567.919"/>
<text text-anchor="middle" x="912.419" y="-606.54" font-family="FreeSans" font-size="14.00">via synthetic devs</text>
<text text-anchor="middle" x="912.419" y="-591.54" font-family="FreeSans" font-size="14.00"> in /dev/bonedongle</text>
</g>
<!-- find_tags&#45;&gt;tagfinder_js -->
<g id="edge27" class="edge"><title>find_tags&#45;&gt;tagfinder_js</title>
<path fill="none" stroke="black" d="M446.559,-442.51C439.032,-458.975 432.016,-482.983 445.419,-498 468.95,-524.364 569.081,-507.652 603.419,-516 608.635,-517.268 613.994,-518.828 619.303,-520.548"/>
<polygon fill="black" stroke="black" points="618.172,-523.86 628.767,-523.789 620.44,-517.238 618.172,-523.86"/>
<text text-anchor="middle" x="494.919" y="-479.3" font-family="FreeSans" font-size="14.00">tag detections</text>
</g>
<!-- samba -->
<g id="node26" class="node"><title>samba</title>
<polygon fill="none" stroke="black" points="2249.42,-676.43 2249.42,-712.43 2561.42,-712.43 2561.42,-676.43 2249.42,-676.43"/>
<text text-anchor="middle" x="2405.42" y="-690.73" font-family="FreeSans" font-size="14.00">samba/file server/files on \192.168.7.2data</text>
</g>
<!-- samba&#45;&gt;networkDrive -->
<g id="edge35" class="edge"><title>samba&#45;&gt;networkDrive</title>
<path fill="none" stroke="black" d="M2444.59,-676.394C2477.5,-662.899 2526.13,-644.85 2570.42,-635.74 2598.67,-629.928 2806.68,-635.496 2829.42,-617.74 2856.63,-596.493 2853.42,-578.391 2853.42,-543.87 2853.42,-543.87 2853.42,-543.87 2853.42,-303.5 2853.42,-262.003 2853.42,-213.894 2853.42,-184.456"/>
<polygon fill="black" stroke="black" points="2856.92,-184.141 2853.42,-174.141 2849.92,-184.141 2856.92,-184.141"/>
</g>
<!-- ftpd -->
<g id="node27" class="node"><title>ftpd</title>
<polygon fill="none" stroke="black" points="2043.42,-667.93 2043.42,-720.93 2231.42,-720.93 2231.42,-667.93 2043.42,-667.93"/>
<text text-anchor="middle" x="2137.42" y="-705.73" font-family="FreeSans" font-size="14.00">ftpd</text>
<text text-anchor="middle" x="2137.42" y="-690.73" font-family="FreeSans" font-size="14.00">ftp server</text>
<text text-anchor="middle" x="2137.42" y="-675.73" font-family="FreeSans" font-size="14.00">files on ftp://192.168.7.2</text>
</g>
<!-- ftpd&#45;&gt;ftpClient -->
<g id="edge33" class="edge"><title>ftpd&#45;&gt;ftpClient</title>
<path fill="none" stroke="black" d="M2174.89,-667.731C2193.74,-656.059 2217.42,-643.218 2240.42,-635.74 2363.48,-595.73 2815.42,-673.268 2815.42,-543.87 2815.42,-543.87 2815.42,-543.87 2815.42,-303.5 2815.42,-277.57 2775.81,-216.919 2751.65,-182.334"/>
<polygon fill="black" stroke="black" points="2754.5,-180.297 2745.87,-174.14 2748.77,-184.33 2754.5,-180.297"/>
</g>
</g>
</svg>
